<svg xmlns="http://www.w3.org/2000/svg" viewBox="0 0 313 220"><defs><style>.cls-1{fill:#fbb03b;stroke:#000;stroke-miterlimit:10;}</style></defs><title>Asset 1</title><g id="Layer_2" data-name="Layer 2"><g id="Working_Layer" data-name="Working Layer"><path class="cls-1" d="M189.79,133.13A47.63,47.63,0,1,1,142.17,85.5,47.62,47.62,0,0,1,189.79,133.13Z"/><circle class="cls-1" cx="263.64" cy="68.5" r="19"/><path class="cls-1" d="M86.5,29.5V.5h-63v29H.5v190h312V29.5Zm55.67,151.25a47.63,47.63,0,1,1,47.62-47.62A47.62,47.62,0,0,1,142.17,180.75ZM263.64,87.5a19,19,0,1,1,19-19A19,19,0,0,1,263.64,87.5Z"/><path class="cls-1" d="M189.79,133.13A47.63,47.63,0,1,1,142.17,85.5,47.62,47.62,0,0,1,189.79,133.13Z"/><circle class="cls-1" cx="263.64" cy="68.5" r="19"/></g></g></svg>