<svg xmlns="http://www.w3.org/2000/svg" viewBox="0 0 43.31 43.3"><defs><style>.cls-1{fill:#6b6b6b;}</style></defs><title>Asset 2</title><g id="Layer_2" data-name="Layer 2"><g id="Magnifying_Glass" data-name="Magnifying Glass"><path class="cls-1" d="M35.61,7.69A11,11,0,0,0,20,23.29a11,11,0,0,0,15.6-15.6ZM34.2,21.88a9,9,0,1,1,0-12.78A9,9,0,0,1,34.2,21.88Z"/><path class="cls-1" d="M38.77,4.53A15.48,15.48,0,0,0,13.71,21.87h0L.29,35.28a1,1,0,0,0,0,1.42L6.6,43a1,1,0,0,0,.71.3A1,1,0,0,0,8,43l13.4-13.4h0A15.49,15.49,0,0,0,38.77,4.53ZM19.3,28.89l-12,12L2.41,36l12-12,2.44,2.44h0ZM37.35,25a13.47,13.47,0,0,1-19.08,0h0a13.51,13.51,0,1,1,19.09,0Z"/></g></g></svg>